<svg xmlns="http://www.w3.org/2000/svg" viewBox="0 0 64 64">
  <circle cx="32" cy="32" r="32" fill="#F0EAD8"/>
  <g transform="translate(32,32)" fill="none" stroke="#5E4B3B">
    <!-- Outer lotus petals (8) - pointed, like a dharma wheel -->
    <g stroke-width="1.4">
      <path d="M0,-21 C4,-15 4,-7 0,0 C-4,-7 -4,-15 0,-21Z" fill="#5E4B3B" fill-opacity="0.1"/>
      <path d="M0,-21 C4,-15 4,-7 0,0 C-4,-7 -4,-15 0,-21Z" fill="#5E4B3B" fill-opacity="0.1" transform="rotate(45)"/>
      <path d="M0,-21 C4,-15 4,-7 0,0 C-4,-7 -4,-15 0,-21Z" fill="#5E4B3B" fill-opacity="0.1" transform="rotate(90)"/>
      <path d="M0,-21 C4,-15 4,-7 0,0 C-4,-7 -4,-15 0,-21Z" fill="#5E4B3B" fill-opacity="0.1" transform="rotate(135)"/>
      <path d="M0,-21 C4,-15 4,-7 0,0 C-4,-7 -4,-15 0,-21Z" fill="#5E4B3B" fill-opacity="0.1" transform="rotate(180)"/>
      <path d="M0,-21 C4,-15 4,-7 0,0 C-4,-7 -4,-15 0,-21Z" fill="#5E4B3B" fill-opacity="0.1" transform="rotate(225)"/>
      <path d="M0,-21 C4,-15 4,-7 0,0 C-4,-7 -4,-15 0,-21Z" fill="#5E4B3B" fill-opacity="0.1" transform="rotate(270)"/>
      <path d="M0,-21 C4,-15 4,-7 0,0 C-4,-7 -4,-15 0,-21Z" fill="#5E4B3B" fill-opacity="0.1" transform="rotate(315)"/>
    </g>
    <!-- Inner lotus petals (8, offset) - rounder, softer -->
    <g stroke-width="1.2">
      <path d="M0,-14 C3,-9 3,-4 0,0 C-3,-4 -3,-9 0,-14Z" fill="#5E4B3B" fill-opacity="0.18" transform="rotate(22.5)"/>
      <path d="M0,-14 C3,-9 3,-4 0,0 C-3,-4 -3,-9 0,-14Z" fill="#5E4B3B" fill-opacity="0.18" transform="rotate(67.5)"/>
      <path d="M0,-14 C3,-9 3,-4 0,0 C-3,-4 -3,-9 0,-14Z" fill="#5E4B3B" fill-opacity="0.18" transform="rotate(112.5)"/>
      <path d="M0,-14 C3,-9 3,-4 0,0 C-3,-4 -3,-9 0,-14Z" fill="#5E4B3B" fill-opacity="0.18" transform="rotate(157.5)"/>
      <path d="M0,-14 C3,-9 3,-4 0,0 C-3,-4 -3,-9 0,-14Z" fill="#5E4B3B" fill-opacity="0.18" transform="rotate(202.5)"/>
      <path d="M0,-14 C3,-9 3,-4 0,0 C-3,-4 -3,-9 0,-14Z" fill="#5E4B3B" fill-opacity="0.18" transform="rotate(247.5)"/>
      <path d="M0,-14 C3,-9 3,-4 0,0 C-3,-4 -3,-9 0,-14Z" fill="#5E4B3B" fill-opacity="0.18" transform="rotate(292.5)"/>
      <path d="M0,-14 C3,-9 3,-4 0,0 C-3,-4 -3,-9 0,-14Z" fill="#5E4B3B" fill-opacity="0.18" transform="rotate(337.5)"/>
    </g>
    <!-- Tiny inner ring -->
    <circle cx="0" cy="0" r="5.5" stroke-width="0.8"/>
    <!-- Center bindu -->
    <circle cx="0" cy="0" r="2.5" fill="#5E4B3B" stroke="none"/>
  </g>
</svg>
